<svg xmlns="http://www.w3.org/2000/svg" version="1.1" xmlns:xlink="http://www.w3.org/1999/xlink" width="512" height="512" x="0" y="0" viewBox="0 0 599.318 599" style="enable-background:new 0 0 512 512" xml:space="preserve" class=""><g><path d="M41.309 103.426h516.379c22.816 0 41.312 18.496 41.312 41.308v371.793c0 22.813-18.5 41.309-41.313 41.309H41.31C18.496 557.836 0 539.34 0 516.527V144.734c0-22.812 18.496-41.308 41.309-41.308Zm0 0" style="stroke:none;fill-rule:nonzero;fill-opacity:1;" fill="#75462e" data-original="#75462e"></path><path d="M557.688 103.426h-8.438L41.828 557.836h515.86c22.816 0 41.312-18.496 41.312-41.309V144.734c0-22.812-18.496-41.308-41.313-41.308Zm0 0" style="stroke:none;fill-rule:nonzero;fill-opacity:1;" fill="#6e422b" data-original="#6e422b" class=""></path><path d="M196.223 41.457v61.965h41.312V41.457h123.93v61.965h41.308V41.457c0-22.812-18.496-41.309-41.308-41.309h-123.93c-22.812 0-41.312 18.497-41.312 41.309Zm0 0" style="stroke:none;fill-rule:nonzero;fill-opacity:1;" fill="#6b402a" data-original="#6b402a" class=""></path><path d="M599 289.32 340.809 402.922H258.19L0 289.32V175.72c0-22.817 18.496-41.313 41.309-41.313h516.379c22.816 0 41.312 18.496 41.312 41.313Zm0 0" style="stroke:none;fill-rule:nonzero;fill-opacity:1;" fill="#663d28" data-original="#663d28"></path><path d="M599 258.34 340.809 371.94H258.19L0 258.34V144.734c0-22.812 18.496-41.308 41.309-41.308h516.379c22.816 0 41.312 18.496 41.312 41.308Zm0 0" style="stroke:none;fill-rule:nonzero;fill-opacity:1;" fill="#875339" data-original="#875339" class=""></path><path d="M196.223 82.77h41.312v20.656h-41.312ZM361.465 82.77h41.308v20.656h-41.308Zm0 0" style="stroke:none;fill-rule:nonzero;fill-opacity:1;" fill="#5c3724" data-original="#5c3724"></path><path d="M557.688 103.426H447.504L174.535 335.145l83.656 36.796h82.618L599 258.34V144.734c0-22.812-18.496-41.308-41.313-41.308Zm0 0" style="stroke:none;fill-rule:nonzero;fill-opacity:1;" fill="#7d4a32" data-original="#7d4a32"></path><path d="M258.191 371.941h82.618v41.309c0 22.816-18.497 41.313-41.309 41.313-22.813 0-41.309-18.5-41.309-41.313Zm0 0" style="stroke:none;fill-rule:nonzero;fill-opacity:1;" fill="#ffa230" data-original="#ffa230"></path><path d="M289.172 402.922h20.656v20.656h-20.656Zm0 0" style="stroke:none;fill-rule:nonzero;fill-opacity:1;" fill="#fdb62f" data-original="#fdb62f"></path><path d="M258.191 330.629h82.618v41.312H258.19Zm0 0" style="stroke:none;fill-rule:nonzero;fill-opacity:1;" fill="#ffa230" data-original="#ffa230"></path><path d="M258.191 330.629h82.618v20.656H258.19Zm0 0" style="stroke:none;fill-rule:nonzero;fill-opacity:1;" fill="#fdb62f" data-original="#fdb62f"></path><path d="M258.191 371.941h82.618v20.653H258.19Zm0 0" style="stroke:none;fill-rule:nonzero;fill-opacity:1;" fill="#f0890c" data-original="#f0890c"></path></g></svg>
