<svg xmlns="http://www.w3.org/2000/svg" version="1.1" xmlns:xlink="http://www.w3.org/1999/xlink" width="512" height="512" x="0" y="0" viewBox="0 0 512 512" style="enable-background:new 0 0 512 512" xml:space="preserve" class=""><g><path d="M478.9 334h-85l32.9-156h52.1c18.3 0 33.1-14.8 33.1-33.1s-14.8-33.1-33.1-33.1h-38.1L455.9 40c3.8-17.9-7.7-35.5-25.6-39.3S394.8 8.4 391 26.3l-18 85.4H199.9L215 40c3.8-17.9-7.7-35.5-25.6-39.3-2.3-.5-4.5-.7-6.8-.7-15.6.1-29.1 11-32.4 26.3l-18 85.4h-99C14.9 111.7 0 126.5 0 144.8S14.9 178 33.2 178h85l-33 156H33.1C14.8 334 0 348.8 0 367.1s14.8 33.1 33.1 33.1h38.1L56.1 472c-3.8 17.9 7.7 35.5 25.6 39.3 2.2.5 4.5.7 6.8.7 15.7 0 29.2-11 32.4-26.3l18-85.4H312L297 472c-3.8 17.9 7.7 35.5 25.6 39.3 2.2.5 4.5.7 6.8.7 15.6-.1 29.1-11 32.4-26.3l18-85.4h99c18.3 0 33.1-14.8 33.1-33.1.1-18.3-14.7-33.2-33-33.2zM153 334l32.9-156H359l-32.9 156z" fill="#000000" opacity="1" data-original="#000000" class=""></path></g></svg>
