<svg xmlns="http://www.w3.org/2000/svg" version="1.1" xmlns:xlink="http://www.w3.org/1999/xlink" width="512" height="512" x="0" y="0" viewBox="0 0 510 510" style="enable-background:new 0 0 512 512" xml:space="preserve" class=""><g><linearGradient id="a"><stop offset="0" stop-color="#dc4955"></stop><stop offset="1" stop-color="#c4237c"></stop></linearGradient><linearGradient xlink:href="#a" id="e" x1="145.366" x2="320.302" y1="171.467" y2="346.403" gradientUnits="userSpaceOnUse"></linearGradient><linearGradient id="b"><stop offset="0" stop-color="#e38523"></stop><stop offset="1" stop-color="#c4237c"></stop></linearGradient><linearGradient xlink:href="#b" id="f" x1="126.431" x2="294.539" y1="176.636" y2="344.744" gradientUnits="userSpaceOnUse"></linearGradient><linearGradient id="c"><stop offset="0" stop-color="#8a1958" stop-opacity="0"></stop><stop offset="1" stop-color="#8a1958"></stop></linearGradient><linearGradient xlink:href="#c" id="g" x1="254.919" x2="254.919" y1="390.226" y2="493.819" gradientUnits="userSpaceOnUse"></linearGradient><linearGradient xlink:href="#c" id="h" x1="155.73" x2="300.851" y1="86.27" y2="231.391" gradientUnits="userSpaceOnUse"></linearGradient><linearGradient xlink:href="#a" id="i" x1="254.166" x2="254.944" y1="509.681" y2="510.459" gradientUnits="userSpaceOnUse"></linearGradient><linearGradient xlink:href="#c" id="j" x1="439.575" x2="316.766" y1="525.425" y2="402.616" gradientUnits="userSpaceOnUse"></linearGradient><linearGradient id="k" x1="171.023" x2="325.895" y1="256.869" y2="411.741" gradientUnits="userSpaceOnUse"><stop offset="0" stop-color="#f7e07d"></stop><stop offset="1" stop-color="#e69642"></stop></linearGradient><linearGradient xlink:href="#b" id="l" x1="49.879" x2="106.487" y1="136.5" y2="193.108" gradientUnits="userSpaceOnUse"></linearGradient><linearGradient id="d"><stop offset="0" stop-color="#d52c1c" stop-opacity="0"></stop><stop offset=".28" stop-color="#d12c1e" stop-opacity=".28"></stop><stop offset=".574" stop-color="#c42c23" stop-opacity=".574"></stop><stop offset=".872" stop-color="#af2b2c" stop-opacity=".872"></stop><stop offset="1" stop-color="#a42b31"></stop></linearGradient><linearGradient xlink:href="#d" id="m" x1="255" x2="255" y1="393" y2="482.051" gradientUnits="userSpaceOnUse"></linearGradient><linearGradient xlink:href="#d" id="n" x1="229.331" x2="303.88" y1="363.331" y2="288.782" gradientUnits="userSpaceOnUse"></linearGradient><path fill="url(#e)" d="M346.915 71.087C320.697 29.062 289.062 0 255 0 181.415 0 119.149 135.628 98.379 244.605a162.295 162.295 0 0 1-13.786-16.21c-16.222-21.773-50.56-13.819-55.229 12.929a230.314 230.314 0 0 0-3.418 39.944c.174 126.388 101.59 228.005 227.726 228.713.443.004.884.02 1.328.02.092 0 .182-.004.274-.004.113 0 .224.004.337.003 126.222-.329 228.443-102.754 228.443-229.053 0-93.813-56.4-174.446-137.139-209.86z" opacity="1" data-original="url(#e)"></path><path fill="url(#f)" d="M374.667 331.191c0 68.954-53.577 124.853-119.667 124.853s-119.667-55.898-119.667-124.853S188.91 131.457 255 131.457s119.667 130.78 119.667 199.734z" opacity="1" data-original="url(#f)" class=""></path><path fill="url(#g)" d="M48.553 380.613c36.762 76.346 114.569 128.86 205.119 129.367.443.004.884.02 1.328.02.092 0 .182-.004.274-.004.113 0 .224.004.337.003 90.521-.236 168.692-52.984 205.675-129.387H48.553z" opacity="1" data-original="url(#g)"></path><path fill="url(#h)" d="M177.27 280.946c75.141 0 136.054-87.829 136.054-196.172v-.242c-.011-12.906 12.9-21.734 24.922-17.042a228.86 228.86 0 0 1 8.668 3.597C320.697 29.062 289.062 0 255 0 181.415 0 119.149 135.628 98.379 244.605c22.252 22.876 49.48 36.341 78.891 36.341z" opacity="1" data-original="url(#h)" class=""></path><path fill="url(#i)" d="M253.672 509.98c.443.004.884.02 1.328.02.092 0 .182-.004.274-.004-.536.001-1.068-.013-1.602-.016z" opacity="1" data-original="url(#i)"></path><path fill="url(#j)" d="m464.772 373.036-91.316-91.315c-13.58-15.56-32.1-24.631-52.544-25.627a79 79 0 0 0-3.829-.094c-20.264 0-39.394 7.809-53.865 21.989-2.458 2.408-5.559 5.791-7.647 8.458 0 0-6.343-7.037-7.791-8.457-14.471-14.18-32.6-21.99-52.864-21.99-1.269 0-2.557.031-3.829.094-21.628 1.054-41.111 11.135-54.86 28.386-14.846 18.628-20.92 43.009-16.666 66.892 4.838 27.155 20.397 53.373 46.296 78.092l80.342 80.342c2.482.093 4.971.161 7.473.175.443.004.884.02 1.328.02.092 0 .182-.004.274-.004.113 0 .224.004.337.003 93.481-.245 173.784-56.496 209.161-136.964z" opacity="1" data-original="url(#j)"></path><path fill="url(#k)" d="M255 484.054a32.526 32.526 0 0 1-14.485-3.424c-13.525-6.769-39.938-21.284-64.853-42.443-32.412-27.526-51.623-57.071-57.1-87.816-4.255-23.883 1.82-48.264 16.666-66.892 13.749-17.251 33.232-27.332 54.86-28.387a78.998 78.998 0 0 1 3.829-.093c20.263 0 39.393 7.809 53.864 21.99a77.906 77.906 0 0 1 7.219 8.132 78.041 78.041 0 0 1 7.22-8.133c14.47-14.18 33.6-21.989 53.865-21.989 1.269 0 2.557.031 3.829.093 21.628 1.054 41.112 11.136 54.861 28.388 14.846 18.627 20.919 43.008 16.664 66.891-5.477 30.744-24.688 60.29-57.1 87.815-24.914 21.159-51.326 35.674-64.853 42.443A32.507 32.507 0 0 1 255 484.054z" opacity="1" data-original="url(#k)"></path><circle cx="69.378" cy="156" r="29.5" fill="url(#l)" opacity="1" data-original="url(#l)"></circle><path fill="url(#m)" d="M128.571 380.613c9.713 19.928 25.457 39.202 47.091 57.575 24.915 21.159 51.327 35.674 64.853 42.443A32.532 32.532 0 0 0 255 484.055c5.001 0 10.01-1.184 14.485-3.424 13.527-6.769 39.938-21.284 64.853-42.443 21.634-18.373 37.378-37.647 47.091-57.575z" opacity="1" data-original="url(#m)"></path><path fill="url(#n)" d="M254.999 398.332c-31.262-31.262-31.262-81.948 0-113.211a77.804 77.804 0 0 0-7.219-8.132c-14.471-14.18-33.6-21.99-53.864-21.99-1.269 0-2.557.031-3.829.094-21.628 1.054-41.111 11.135-54.86 28.386-14.846 18.628-20.92 43.009-16.666 66.892 5.477 30.745 24.689 60.29 57.1 87.816 24.915 21.159 51.327 35.674 64.853 42.443a32.532 32.532 0 0 0 14.485 3.424c5.001 0 10.01-1.184 14.485-3.424 9.487-4.748 25.314-13.31 42.514-25.297z" opacity="1" data-original="url(#n)"></path></g></svg>