<svg width="147" height="29" viewBox="0 0 147 29" fill="none" xmlns="http://www.w3.org/2000/svg">
<path fill-rule="evenodd" clip-rule="evenodd" d="M28.8495 28.9502C28.822 27.818 28.7875 26.684 28.9248 25.5722C29.5203 20.7628 31.634 16.6924 35.2347 13.4239C38.5849 10.3822 42.5365 8.68019 47.0385 8.35018C50.4318 8.10073 53.7114 8.66349 56.7988 10.145C61.8391 12.5605 65.2721 16.4311 67.1534 21.6841C67.8019 23.4912 68.1089 25.3717 68.1798 27.2827C68.1995 27.8373 68.1698 28.3945 68.1289 28.9502H76.1389V26.8629C76.0562 26.0596 75.9901 25.2552 75.8888 24.453C75.3356 20.0549 73.7843 16.0272 71.2779 12.3782C68.5206 8.36206 64.941 5.27729 60.5607 3.14245C57.3976 1.60118 54.0607 0.705814 50.5435 0.449677C46.857 0.180549 43.2588 0.599276 39.7624 1.75857C36.28 2.91453 33.1392 4.70525 30.3622 7.1211C26.5602 10.4279 23.8649 14.4834 22.2382 19.239C21.508 21.3719 21.0243 23.5773 20.9349 25.8387C20.8952 26.874 20.9115 27.9119 20.9275 28.9502H28.8495Z" fill="#3AB554"/>
<path fill-rule="evenodd" clip-rule="evenodd" d="M4.79866 4.99727V12.8039H17.4043V17.2358H4.79866V28.9468H0V0.524902H18.9493L18.9081 4.99727H4.79866Z" fill="#2D2D2D"/>
<path fill-rule="evenodd" clip-rule="evenodd" d="M98.0536 13.7793C99.0307 12.9403 99.5177 11.5914 99.5177 9.73307C99.5177 7.87738 99.0154 6.60338 98.0143 5.91182C97.0109 5.22025 95.2213 4.87502 92.6454 4.87502H86.5468V15.0399H92.5237C95.2339 15.0399 97.0792 14.6205 98.0536 13.7793M104.439 9.75423C104.439 14.4438 102.391 17.3979 98.2983 18.6184L105.738 28.9463H99.6398L92.8507 19.3898H86.5468V28.9463H81.75V0.524414H92.3206C96.6575 0.524414 99.7616 1.25607 101.632 2.72013C103.503 4.18345 104.439 6.52914 104.439 9.75423" fill="#2D2D2D"/>
<path fill-rule="evenodd" clip-rule="evenodd" d="M111.348 28.9464H116.146V0.523438H111.348V28.9464Z" fill="#2D2D2D"/>
<path fill-rule="evenodd" clip-rule="evenodd" d="M140.868 28.9464L133.875 18.2529H133.67L126.677 28.9464H120.699L130.459 14.3492L121.392 0.523438H127.328L133.67 10.1196H133.875L140.217 0.523438H146.154L137.086 14.3492L146.845 28.9464H140.868Z" fill="#2D2D2D"/>
</svg>
